<?xml version="1.0" encoding="utf-8"?>
<!-- Generator: Adobe Illustrator 21.1.0, SVG Export Plug-In . SVG Version: 6.00 Build 0)  -->
<svg version="1.1" id="Layer_1" xmlns="http://www.w3.org/2000/svg" xmlns:xlink="http://www.w3.org/1999/xlink" x="0px" y="0px"
	 viewBox="0 0 149.9 84.3" style="enable-background:new 0 0 149.9 84.3;" xml:space="preserve">
<style type="text/css">
	.st0{fill:none;stroke:#99604C;stroke-width:0.15;stroke-miterlimit:10;}
</style>
<title>Asset 1</title>
<g id="Layer_2">
	<g id="Layer_1-2">
		<path class="st0" d="M147.5,25.9c-0.4-6.8-0.1-11.3-4.1-14.7c-4.7-4.1-14.8-5.7-19.2-6.4C111.7,2.5,98,1.2,73.7,1.2
			C50,1.2,37.3,2.5,25.3,4.7C21,5.5,11.8,7,6.5,10.9c-3.1,2.2-4.2,5.9-4.2,13.6"/>
		<path class="st0" d="M148,32.2c-0.2-3.8-0.7-8.5-2.4-10.9s-4.4-4.2-8.8-5.4c-3.2-0.9-6.3-1.7-9.4-2.4c-5-1.1-10.1-1.9-15.3-2.4
			c-8.1-0.8-16.3-1.2-24.5-1.2H62c-8.2,0-16.3,0.4-24.5,1.2c-5.1,0.5-10.2,1.3-15.3,2.4c-3.1,0.7-6.3,1.6-9.4,2.4
			c-4.5,1.2-7.2,3-8.8,5.4s-2.2,8.8-2.4,12.5"/>
		<path class="st0" d="M144.6,51h4c0.7,0,1.3-0.6,1.3-1.3V35.1c0-0.7-0.6-1.3-1.3-1.3h-4V51z"/>
		<path class="st0" d="M148,32.2V33c0,0.5-0.5,0.9-1,0.8c0,0,0,0,0,0h-1V51h1c0.6,0,1,0.3,1,0.7"/>
		<path class="st0" d="M1.5,51.7"/>
		<path class="st0" d="M1.6,32.2V33"/>
		<path class="st0" d="M5.3,51h-4c-0.7,0-1.2-0.6-1.2-1.3V35.1c0-0.7,0.6-1.3,1.3-1.3h4L5.3,51z"/>
		<polyline class="st0" points="2.8,33.8 3.8,33.8 3.8,51 		"/>
		<path class="st0" d="M1.5,51.7c0,0,0,4.4,0.1,4.5c0.4,2.6,1.6,5,3.6,8.3c7.4,12,17.7,14,31,17.2c10.6,2.5,15.2,3.8,20.4-3.4
			c4.6-6.4,32-6.4,36.5,0c5.2,7.2,10.9,7.1,20.3,3.4c12.7-5,23.6-5.2,31-17.2c1.4-2.3,2.5-4.8,3.5-7.3c0.1-0.2,0.2-5.5,0.2-5.5"/>
		<path class="st0" d="M148,32.2c-0.2-3.8-0.7-11.3-2.4-13.7s-4.4-4.2-8.8-5.4c-3.2-0.9-22.4-5.1-62-5.1s-58.8,4.2-62,5.1
			c-4.5,1.2-7.2,3-8.8,5.4s-2.2,9.9-2.4,13.7"/>
		<path class="st0" d="M136.3,50.9l-0.1-17.8c0-1.7,0.4-3.4,1.2-4.9c0.5-0.9,0.7-1.8,0.5-2.8l0,0c-0.2-1.2-0.9-2.3-1.9-3
			c-14.3-8.9-46.8-5.1-61.3-5.1s-46.9-3.8-61.3,5.1c-1.1,0.7-1.8,1.8-1.9,3l0,0c-0.1,1,0,1.9,0.5,2.8c0.8,1.5,1.2,3.2,1.2,4.9
			l-0.1,17.8c0,1.4-0.3,2.7-0.8,4c-0.6,1.3-0.5,2.9,0.3,4.1C18,67.6,27.2,70.1,37,72.3l1.9,0.4c0.2,0,0.4,0.1,0.6,0.2
			c2.1,0.9,4.3,1.3,6.6,1.4c1,0,1.9-0.3,2.7-0.9c8.3-6.2,14.6-9.3,26-9.3s17.7,3.1,26,9.3c0.8,0.6,1.7,0.9,2.7,0.9
			c2.2-0.1,4.4-0.5,6.5-1.4c0.2-0.1,0.4-0.1,0.6-0.2l1.9-0.4c9.8-2.3,19-4.8,24.3-13.4c0.8-1.2,0.9-2.8,0.3-4.1
			C136.6,53.6,136.3,52.3,136.3,50.9z"/>
		<path class="st0" d="M86.6,0.9c0-0.4-0.6-0.8-1.3-0.8H64.3c-0.7,0-1.3,0.4-1.3,0.8"/>
		<path class="st0" d="M85.7,3.4"/>
		<circle class="st0" cx="43.3" cy="43.6" r="21"/>
		<circle class="st0" cx="106.6" cy="43.6" r="21"/>
	</g>
</g>
</svg>
