<?xml version="1.0" encoding="utf-8"?>
<!-- Generator: Adobe Illustrator 21.1.0, SVG Export Plug-In . SVG Version: 6.00 Build 0)  -->
<svg version="1.1" id="Layer_1" xmlns="http://www.w3.org/2000/svg" xmlns:xlink="http://www.w3.org/1999/xlink" x="0px" y="0px"
	 viewBox="0 0 723 175.8" style="enable-background:new 0 0 723 175.8;" xml:space="preserve">
<style type="text/css">
	.st0{fill:#FFFFFF;}
</style>
<title>Asset 1</title>
<g id="Layer_2">
	<g id="Layer_1-2">
		<path class="st0" d="M308.3,146.9h-10.5v28.4h-7v-28.4h-10.3v-5.7h27.8V146.9z"/>
		<path class="st0" d="M340.5,160.5H327v9.2h15.8v5.6H320v-34.1h22.8v5.7H327v8.1h13.5L340.5,160.5z"/>
		<path class="st0" d="M372.3,166.4c0.1-1.2-0.5-2.3-1.4-3.1c-1.6-1-3.3-1.8-5.1-2.2c-2-0.6-3.9-1.4-5.8-2.3
			c-3.9-2.1-5.8-4.9-5.8-8.5c0-1.8,0.5-3.5,1.6-4.9c1.1-1.5,2.7-2.7,4.5-3.4c2.1-0.8,4.3-1.3,6.5-1.2c2.2,0,4.5,0.4,6.5,1.3
			c1.8,0.8,3.3,2.1,4.4,3.7c1.1,1.6,1.6,3.5,1.6,5.5h-7c0.1-1.4-0.5-2.7-1.5-3.6c-1.2-0.9-2.7-1.4-4.1-1.3c-1.4-0.1-2.8,0.3-4,1.1
			c-0.9,0.7-1.5,1.7-1.4,2.9c0,1.2,0.7,2.2,1.7,2.8c1.5,0.9,3.2,1.6,4.9,2.1c4,1.2,6.9,2.7,8.7,4.5c1.8,1.7,2.8,4.2,2.7,6.7
			c0.1,2.7-1.2,5.3-3.4,6.9c-2.2,1.7-5.2,2.5-9,2.5c-2.5,0-4.9-0.5-7.2-1.4c-2-0.8-3.7-2.2-4.9-3.9c-1.1-1.7-1.7-3.7-1.7-5.8h7
			c0,3.8,2.2,5.6,6.8,5.6c1.4,0.1,2.7-0.3,3.9-1C371.8,168.6,372.4,167.5,372.3,166.4z"/>
		<path class="st0" d="M417.5,146.9h-10.5v28.4h-7v-28.4h-10.4v-5.7h27.8L417.5,146.9z"/>
		<path class="st0" d="M460.1,162.9h-5.6v12.5h-7v-34.1h12.7c4,0,7.1,0.9,9.3,2.7c2.2,1.9,3.4,4.7,3.3,7.6c0.1,2-0.5,4.1-1.5,5.8
			c-1.1,1.7-2.7,2.9-4.6,3.7L474,175v0.3h-7.5L460.1,162.9z M454.5,157.2h5.7c1.5,0.1,3-0.4,4.1-1.4c1-1,1.5-2.3,1.5-3.7
			c0.1-1.4-0.4-2.8-1.4-3.8c-1.2-1-2.7-1.5-4.2-1.4h-5.6L454.5,157.2z"/>
		<path class="st0" d="M493.2,175.3h-7v-34.1h7V175.3z"/>
		<path class="st0" d="M507.4,175.3v-34.1h10.5c2.8-0.1,5.6,0.6,8,2c2.4,1.4,4.3,3.4,5.5,5.8c1.4,2.6,2,5.5,2,8.5v1.6
			c0,2.9-0.6,5.8-2,8.5c-1.2,2.4-3.2,4.4-5.5,5.7c-2.4,1.4-5.2,2.1-8,2.1L507.4,175.3z M514.4,146.9v22.8h3.4
			c2.4,0.1,4.7-0.9,6.3-2.7c1.5-1.8,2.2-4.4,2.2-7.7v-1.8c0-3.5-0.7-6.1-2.2-7.9c-1.6-1.8-3.9-2.8-6.3-2.7L514.4,146.9z"/>
		<path class="st0" d="M566.8,160.5h-13.5v9.2h15.8v5.6h-22.9v-34.1h22.8v5.7h-15.8v8.1h13.5V160.5z"/>
		<path class="st0" d="M49.8,160.2l0.7,2.6l0.8-2.6L89.8,52.8h11.4L55.5,175.3h-9.9L0,52.8h11.3L49.8,160.2z"/>
		<path class="st0" d="M182.2,124.3h-35.6v51.1h-10.4V52.8h39.8c13.1,0,23.3,3.2,30.6,9.5s11,15.2,11,26.6
			c0.1,7.5-2.3,14.8-6.9,20.8c-4.7,6-11.2,10.4-18.5,12.4l30.6,52.2v1.1h-11L182.2,124.3z M146.6,115.5h31.7c8.7,0,15.7-2.5,21-7.4
			c5.3-4.9,8-11.4,7.9-19.2c0-8.7-2.8-15.4-8.2-20.1s-13.2-7.1-23.1-7.2h-29.2L146.6,115.5z"/>
		<path class="st0" d="M297.2,15.5h-10.1v10.5h-5.3V0.3h16.7v4.3h-11.4v6.6h10.1V15.5z"/>
		<path class="st0" d="M319.7,15.5h-10.1v10.5h-5.3V0.3H321v4.3h-11.4v6.6h10.1V15.5z"/>
		<path class="st0" d="M349,15.7c-1.2,1.3-2.9,2-4.6,2c-2.1,0.1-4.1-0.8-5.4-2.3c-1.4-1.8-2.1-4-2-6.3c0-1.6,0.3-3.2,1.1-4.7
			c0.7-1.3,1.7-2.5,3-3.3c1.3-0.8,2.9-1.2,4.5-1.2c1.6,0,3.2,0.4,4.5,1.3c1.3,0.9,2.4,2.2,3,3.6c0.8,1.7,1.1,3.6,1.1,5.4v1.9
			c0,4.3-1.1,7.6-3.2,10c-2.1,2.4-5.1,3.7-9,3.9h-1.2V22h1.1C346.2,21.8,348.6,19.7,349,15.7z M345.6,13.8c0.8,0,1.5-0.2,2.1-0.6
			c0.5-0.4,1-0.9,1.3-1.5V9.5c0.1-1.4-0.3-2.8-1-4c-0.6-0.9-1.6-1.4-2.6-1.4c-1,0-2,0.5-2.5,1.4c-0.7,1-1,2.3-1,3.5
			c0,1.2,0.3,2.4,1,3.4C343.5,13.3,344.5,13.8,345.6,13.8L345.6,13.8z"/>
		<path class="st0" d="M372.9,25.9h-5.1V6.3l-6.1,1.9V4.1l10.6-3.8h0.5V25.9z"/>
		<path class="st0" d="M718,58.3v9H285.7v-9H718 M723,53.3H280.7v19H723V53.3z"/>
	</g>
</g>
</svg>
